<?xml version="1.0" standalone="no"?>
<!DOCTYPE svg PUBLIC "-//W3C//DTD SVG 1.1//EN" "http://www.w3.org/Graphics/SVG/1.1/DTD/svg11.dtd" >
<svg xmlns="http://www.w3.org/2000/svg">
<metadata>
<json>
<![CDATA[
{
	"fontFamily": "edsfont",
	"fontURL": "http://www.ericsson.com",
	"designer": "Ericsson",
	"description": "Design System Iconfont",
	"copyright": "Ericsson 2017. All Rights Reserved.",
	"majorVersion": 1,
	"minorVersion": 3,
	"version": "Version 1.3",
	"fontId": "edsfont",
	"psName": "edsfont",
	"subFamily": "Regular",
	"fullName": "edsfont"
}
]]>
</json>
</metadata>
<defs>
<font id="edsfont" horiz-adv-x="1024">
<font-face units-per-em="1024" ascent="960" descent="-64" />
<missing-glyph horiz-adv-x="1024" />
<glyph unicode="&#x20;" horiz-adv-x="512" d="" />
<glyph unicode="&#xe900;" glyph-name="econ" data-tags="econ" d="M787.907 118.984l-509.974-172.481c-44.971-15.2-72.092-12.48-94.893-0.896-22.769 11.552-41.218 31.936-49.89 58.4-8.704 26.432-6.023 53.984 5.393 77.088 11.385 23.136 31.473 41.856 76.444 57.056l509.974 172.481c44.971 15.232 72.092 12.48 94.861 0.928 22.801-11.552 41.25-31.936 49.922-58.4 8.704-26.464 6.023-54.016-5.393-77.12-11.385-23.136-31.473-41.824-76.444-57.056zM787.907 757.844l-509.974-172.513c-44.971-15.2-72.092-12.448-94.893-0.896-22.769 11.552-41.218 31.936-49.89 58.4-8.704 26.464-6.023 54.016 5.393 77.12 11.385 23.136 31.473 41.856 76.444 57.056l509.974 172.481c44.971 15.2 72.092 12.48 94.861 0.928 22.801-11.584 41.25-31.968 49.922-58.432 8.704-26.464 6.023-53.984-5.393-77.12-11.385-23.104-31.473-41.824-76.444-57.024zM787.907 438.422l-509.974-172.513c-44.971-15.2-72.092-12.448-94.893-0.896-22.769 11.552-41.218 31.936-49.89 58.4-8.704 26.464-6.023 54.016 5.393 77.12 11.385 23.136 31.473 41.856 76.444 57.056l509.974 172.481c44.971 15.2 72.092 12.448 94.861 0.928 22.801-11.584 41.25-31.968 49.922-58.432 8.704-26.464 6.023-53.984-5.393-77.12-11.385-23.104-31.473-41.824-76.444-57.024z" />
<glyph unicode="&#xe901;" glyph-name="nav" data-tags="nav" d="M128 704.013h768v-128h-768v128zM128 320.013h768v-128h-768v128z" />
<glyph unicode="&#xe902;" glyph-name="view-tiles" data-tags="view-tiles" d="M96 32h358.688v358.624h-358.688zM160 326.624h230.688v-230.624h-230.688zM96 505.312h358.688v358.688h-358.688zM160 800h230.688v-230.688h-230.688zM569.376 864v-358.688h358.624v358.688zM864 569.312h-230.624v230.688h230.624zM569.376 390.624h358.624v-358.624h-358.624v358.624z" />
<glyph unicode="&#xe903;" glyph-name="view-list" data-tags="view-list" d="M383.565 832.422h511.968v-128h-511.968v128zM128.467 831.507h126.195v-128h-126.195v128zM383.565 512.934h511.968v-128h-511.968v128zM128.467 512.026h126.195v-128h-126.195v128zM383.565 192.493h511.968v-128h-511.968v128zM128.467 191.578h126.195v-128h-126.195v128z" />
<glyph unicode="&#xe904;" glyph-name="tasks" data-tags="tasks" d="M383.756 736.010l0.234 64 512.125-1.875-0.234-64-512.125 1.875zM383.816 95.951l0.234 64 512.125-1.875-0.234-64-512.125 1.875zM383.818 416.015l0.234 64 512.125-1.875-0.234-64-512.125 1.875zM334.848 522.688l-47.872 42.496-104.384-117.824-41.088 41.024-45.248-45.248 89.152-89.152 149.44 168.704zM141.504 808.256l-45.248-45.248 89.152-89.152 149.44 168.768-47.936 42.368-104.32-117.76-41.088 41.024zM127.528 95.946l0.937 64 127.999-1.875-0.937-64-127.999 1.875z" />
<glyph unicode="&#xe905;" glyph-name="app-launcher" data-tags="app-launcher" d="M194.086 768.915h128v-128h-128v128zM446.426 768.915h128v-128h-128v128zM701.914 768.915h128v-128h-128v128zM194.086 512h128v-128h-128v128zM446.426 512h128v-128h-128v128zM701.914 512h128v-128h-128v128zM701.914 255.085h128v-128h-128v128zM194.086 255.085h128v-128h-128v128zM446.426 255.085h128v-128h-128v128z" />
<glyph unicode="&#xe906;" glyph-name="dashboard" data-tags="dashboard" d="M530.483 561.030c-5.255 0.846-11.313 1.33-17.485 1.33-20.428 0-39.619-5.299-56.273-14.597l0.587 0.301-116.966 116.998-46.234-46.253 116.448-116.48c-9.264-16.363-14.723-35.935-14.723-56.783 0-64.542 52.322-116.864 116.864-116.864s116.864 52.322 116.864 116.864c0 58.266-42.641 106.572-98.418 115.417l-0.664 0.087zM543.194 403.469c-8.471-6.296-19.137-10.080-30.686-10.080-28.581 0-51.75 23.169-51.75 51.75 0 2.817 0.225 5.582 0.658 8.277l-0.039-0.296c3.997 24.963 25.324 43.824 51.079 43.936h0.012c0.088 0.001 0.192 0.001 0.296 0.001 2.717 0 5.379-0.233 7.968-0.681l-0.277 0.040c13.993-2.156 25.905-9.707 33.756-20.42l0.1-0.144v-0.064c6.238-8.45 9.985-19.071 9.985-30.567 0-17.053-8.243-32.18-20.962-41.616l-0.139-0.099zM512.749 960c-0.001 0-0.002 0-0.004 0-284.321 0-514.81-230.488-514.81-514.81 0-154.783 68.309-293.612 176.425-387.985l0.609-0.52 21.043 24.192 71.91 71.904-46.234 46.221-48.986-48.973c-61.468 70.513-101.446 161.195-108.908 260.94l-0.090 1.498h69.075v65.408h-69.184c7.445 100.892 47.211 191.286 108.86 262.137l-0.463-0.543 48.858-48.877 46.24 46.253-48.851 48.877c70.269 61.254 160.643 101.085 260.047 108.5l1.489 0.089v-69.312h65.395v69.344c100.971-7.373 191.453-47.142 262.355-108.834l-0.543 0.463-49.062-49.062 46.234-46.221 49.088 49.062c61.32-70.32 101.185-160.777 108.577-260.275l0.089-1.485h-69.613v-65.408h69.517c-7.511-100.733-47.1-191.003-108.461-261.912l0.481 0.568-49.606 49.626-46.24-46.253 72.877-72.877 20.986-23.936c107.961 94.85 175.736 233.2 175.736 387.379 0 284.329-230.494 514.822-514.822 514.822-0.004 0-0.008 0-0.012 0h0.001z" />
<glyph unicode="&#xe907;" glyph-name="projects" data-tags="projects" d="M128 96h768v576h-255.654v128h-256v-128h-256.346zM448.346 736h128v-64h-128zM192 608h640v-448h-640z" />
<glyph unicode="&#xe908;" glyph-name="sidemenu-left-open" data-tags="sidemenu-left-open" d="M0.909 896.499v-896.998h1022.246v896.998zM64.909 190.752h63.091v64h-63.091v161.248h63.091v64h-63.091v160.934h63.091v64h-63.091v127.565h131.123v-768.998h-131.123zM959.155 63.501h-699.123v768.998h699.123zM412.608 318.272l44.928-45.504 176.832 174.464-176.064 176-45.248-45.248 130.496-130.496-130.944-129.216z" />
<glyph unicode="&#xe909;" glyph-name="sidemenu-right-close" data-tags="sidemenu-right-close" d="M1023.123-0.499v896.998h-1022.246v-896.998zM959.123 63.501h-319.469v768.998h319.469zM64.877 832.499h510.778v-768.998h-510.778zM704.531 255.066h191.968v-64h-191.968v64zM704.531 480h191.968v-64h-191.968v64zM704 705.248h192.499v-64h-192.499v64zM301.504 623.232l-45.248-45.248 130.496-130.496-130.944-129.216 44.992-45.504 176.768 174.464-176.064 176z" />
<glyph unicode="&#xe90a;" glyph-name="sidemenu-left-close" data-tags="sidemenu-left-close" d="M0.877 896.499v-896.998h1022.246v896.998zM64.877 832.499h319.469v-768.998h-319.469zM959.123 63.501h-510.778v768.998h510.778zM127.501 704.934h191.968v-64h-191.968v64zM127.501 480h191.968v-64h-191.968v64zM127.501 254.752h192.499v-64h-192.499v64zM722.496 272.768l45.248 45.248-130.496 130.496 130.944 129.216-44.992 45.504-176.768-174.464 176.064-176z" />
<glyph unicode="&#xe90b;" glyph-name="sidemenu-right-open" data-tags="sidemenu-right-open" d="M1023.123-0.499v896.998h-1022.246v-896.998zM959.123 705.248h-63.059v-64h63.059v-161.248h-63.059v-64h63.059v-160.934h-63.059v-64h63.059v-127.565h-131.123v768.998h131.123zM64.877 832.499h699.123v-768.998h-699.123zM611.392 577.728l-44.928 45.504-176.768-174.464 176-176 45.248 45.248-130.432 130.496 130.88 129.216z" />
<glyph unicode="&#xe90c;" glyph-name="arrow-up" data-tags="arrow-up" d="M854.528 469.632l-341.44 361.728-343.616-361.664 46.272-43.968 265.344 279.168v-640.256h63.872v639.936l263.168-278.784 46.4 43.84z" />
<glyph unicode="&#xe90d;" glyph-name="arrow-right" data-tags="arrow-right" d="M533.696 790.592l-44.032-46.272 279.296-265.408h-640.32v-63.872h639.936l-278.848-263.104 43.904-46.528 361.728 341.504-361.664 343.68z" />
<glyph unicode="&#xe90e;" glyph-name="arrow-down" data-tags="arrow-down" d="M808.256 470.272l-265.344-279.168v640.256h-63.872v-639.936l-263.168 278.784-46.4-43.84 341.44-361.728 343.616 361.664-46.272 43.968z" />
<glyph unicode="&#xe90f;" glyph-name="arrow-left" data-tags="arrow-left" d="M895.36 480.96h-639.936l278.784 263.104-43.84 46.528-361.728-341.504 361.664-343.68 43.968 46.272-279.232 265.408h640.32v63.872z" />
<glyph unicode="&#xe910;" glyph-name="chevron-up" data-tags="chevron-up" d="M233.408 340.672l45.184-45.12 233.408 233.408 233.408-233.408 45.184 45.12-278.592 278.656-278.592-278.656z" />
<glyph unicode="&#xe911;" glyph-name="chevron-right" data-tags="chevron-right" d="M395.264 736l-45.12-45.184 233.344-233.408-233.344-233.408 45.12-45.184 278.592 278.592-278.592 278.592z" />
<glyph unicode="&#xe912;" glyph-name="chevron-down" data-tags="chevron-down" d="M790.592 551.616l-45.184 45.12-233.408-233.344-233.408 233.344-45.184-45.12 278.592-278.592 278.592 278.592z" />
<glyph unicode="&#xe913;" glyph-name="chevron-left" data-tags="chevron-left" d="M628.736 178.816l45.12 45.184-233.344 233.408 233.344 233.408-45.12 45.184-278.592-278.592 278.592-278.592z" />
<glyph unicode="&#xe914;" glyph-name="sort-down" data-tags="sort-down" d="M790.336 294.592l-45.184 45.12-233.408-233.408-233.408 233.408-45.184-45.12 278.592-278.656 278.592 278.656z" />
<glyph unicode="&#xe915;" glyph-name="sort-up" data-tags="sort-up" d="M744.896 551.744l45.184 45.12-278.592 278.656-278.592-278.656 45.184-45.12 233.408 233.408 233.408-233.408z" />
<glyph unicode="&#xe916;" glyph-name="sorting" data-tags="sorting" d="M512 14.336l278.592 278.592-45.184 45.12-233.408-233.344-233.408 233.344-45.184-45.12 278.592-278.592zM512 785.216l233.408-233.408 45.184 45.12-278.592 278.656-278.592-278.656 45.184-45.12 233.408 233.408z" />
<glyph unicode="&#xe917;" glyph-name="check-small" data-tags="check-small" d="M790.656 616.96l-47.808 42.368-314.24-354.88-148.8 148.8-45.184-45.12 196.8-196.8 359.232 405.632z" />
<glyph unicode="&#xe918;" glyph-name="check" data-tags="check" d="M924.672 712.96l-47.808 42.368-484.224-546.816-236.096 235.968-45.184-45.12 284.096-283.968 529.216 597.568z" />
<glyph unicode="&#xe919;" glyph-name="cross-small" data-tags="cross-small" d="M310.592 201.216l201.728 201.664 201.024-201.728 45.312 45.12-201.152 201.792 200.512 200.576-45.248 45.248-200.448-200.448-200.768 201.408-45.312-45.12 200.896-201.536-201.792-201.728 45.248-45.248z" />
<glyph unicode="&#xe91a;" glyph-name="cross" data-tags="cross" d="M151.936 42.368l360.576 360.64 359.488-360.832 45.312 45.12-359.552 360.896 358.592 358.592-45.248 45.248-358.528-358.528-358.976 360.32-45.312-45.12 359.040-360.384-360.64-360.704 45.248-45.248z" />
<glyph unicode="&#xe91b;" glyph-name="minus-small" data-tags="minus-small" d="M256.289 415.617l0.16 64 509.939-1.275-0.16-64-509.939 1.275z" />
<glyph unicode="&#xe91c;" glyph-name="minus" data-tags="minus" d="M111.887 416.999l0.16 64 800.062-2-0.16-64-800.062 2z" />
<glyph unicode="&#xe91d;" glyph-name="plus-small" data-tags="plus-small" d="M478.656 192.064l64-0.128 0.576 222.976 222.976-0.512 0.192 64-223.040 0.512 0.576 223.040-64 0.128-0.576-222.976-222.912 0.512-0.192-64 222.976-0.512-0.576-223.040z" />
<glyph unicode="&#xe91e;" glyph-name="plus" data-tags="plus" d="M545.024 847.936l-64 0.128-0.96-368-368 0.96-0.192-64 368.064-0.96-0.96-368 64-0.128 0.96 368 368-0.96 0.192 64-368.064 0.96 0.96 368z" />
<glyph unicode="&#xe91f;" glyph-name="more" data-tags="more" d="M605.67 777.824c0-51.733-41.938-93.67-93.67-93.67s-93.67 41.938-93.67 93.67c0 51.733 41.938 93.67 93.67 93.67s93.67-41.938 93.67-93.67zM605.67 448.013c0-51.733-41.938-93.67-93.67-93.67s-93.67 41.938-93.67 93.67c0 51.733 41.938 93.67 93.67 93.67s93.67-41.938 93.67-93.67zM512 211.84c-51.733 0-93.67-41.938-93.67-93.67s41.938-93.67 93.67-93.67c51.733 0 93.67 41.938 93.67 93.67v0c0 51.733-41.938 93.67-93.67 93.67v0z" />
<glyph unicode="&#xe920;" glyph-name="options" data-tags="options" d="M672.378 578.438c58.87 0.142 108.191 40.85 121.501 95.642l0.176 0.857h101.946v58.624h-102.259c-13.697 55.216-62.828 95.497-121.366 95.497s-107.669-40.281-121.186-94.638l-0.181-0.859h-422.477v-58.624h422.163c13.486-55.652 62.811-96.36 121.668-96.499h0.016zM672.378 770.438c0.009 0 0.021 0 0.032 0 36.831 0 66.688-29.857 66.688-66.688s-29.857-66.688-66.688-66.688c-36.831 0-66.688 29.857-66.688 66.688 0 0 0 0 0 0v0c0.044 36.802 29.857 66.626 66.65 66.688h0.006zM672.378 317.562c-58.47-0.167-107.504-40.363-121.153-94.617l-0.184-0.865h-422.509v-58.624h422.163c13.367-55.722 62.762-96.496 121.68-96.496s108.313 40.774 121.507 95.643l0.173 0.852h101.946v58.624h-102.259c-13.833 55.128-62.882 95.329-121.346 95.482h-0.017zM672.378 125.562c-0.009 0-0.021 0-0.032 0-36.831 0-66.688 29.857-66.688 66.688s29.857 66.688 66.688 66.688c36.831 0 66.688-29.857 66.688-66.688v0c-0.044-36.802-29.857-66.626-66.65-66.688h-0.006zM128 418.374h134.477c13.529-55.472 62.793-96.003 121.523-96.003s107.994 40.531 121.346 95.147l0.177 0.856h390.477v58.624h-390.477c-13.529 55.472-62.793 96.003-121.523 96.003s-107.994-40.531-121.346-95.147l-0.177-0.856h-134.477zM384 514.374c0.009 0 0.021 0 0.032 0 36.831 0 66.688-29.857 66.688-66.688s-29.857-66.688-66.688-66.688c-36.831 0-66.688 29.857-66.688 66.688 0 0 0 0 0 0v0c0.044 36.802 29.857 66.626 66.65 66.688h0.006z" />
<glyph unicode="&#xe921;" glyph-name="settings" data-tags="settings" d="M893.76 576.532c-7.044 20.75-14.485 38.112-23.065 54.792l1.049-2.244 91.922 91.93-180.080 180.082-92.096-92.086c-14.462 7.422-31.886 14.747-49.883 20.825l-2.817 0.826v129.954h-254.68v-130.214c-20.749-7.048-38.108-14.491-54.786-23.070l2.247 1.050-91.938 91.93-180.078-180.082 92.078-92.082c-7.423-14.468-14.747-31.897-20.824-49.901l-0.825-2.816h-129.953v-254.677h130.209c7.047-20.752 14.488-38.112 23.067-54.792l-1.051 2.248-91.92-91.93 180.078-180.081 92.086 92.082c14.465-7.421 31.892-14.745 49.894-20.823l2.818-0.825v-129.953h254.687v130.211c20.749 7.046 38.109 14.488 54.788 23.068l-2.244-1.049 91.922-91.93 180.078 180.086-92.078 92.082c7.418 14.462 14.744 31.89 20.824 49.892l0.828 2.823h129.953v254.676zM959.969 385.856l-114.734-0.004c-9.119-48.434-27.373-91.413-53.007-128.951l0.749 1.163-0.016-0.024 80.985-80.98-89.578-89.571-80.922 80.902c-35.795-24.799-78.054-43.159-123.638-52.329l-2.158-0.362c-0.609-0.113-1.141-0.39-1.75-0.5v-114.524h-126.687v114.732l-0.008 0.004c-48.422 9.113-91.391 27.362-128.92 52.991l1.162-0.749-0.047 0.027-80.984-80.98-89.571 89.574 80.915 80.911c-11.568 16.636-22.213 35.628-30.979 55.631l-0.849 2.173-0.078 0.133v0.004c-8.534 19.385-15.721 42.119-20.439 65.744l-0.358 2.15c-0.109 0.598-0.39 1.129-0.5 1.728h-114.524v126.676h114.734c9.12 48.435 27.375 91.415 53.008 128.956l-0.733-1.137-80.986 80.98 89.578 89.574 80.906-80.91c35.804 24.805 78.074 43.168 123.671 52.337l2.158 0.362 0.008 0.004c0.602 0.113 1.133 0.384 1.734 0.492v114.527h126.68v-114.734c48.432-9.114 91.408-27.369 128.942-53.007l-1.161 0.749 0.031-0.018 80.984 80.984 89.571-89.574-80.915-80.911c24.815-35.806 43.181-78.082 52.342-123.688l0.361-2.156c0.125-0.594 0.39-1.125 0.5-1.723h114.524zM512 601.472c-84.424-0.001-152.863-68.441-152.863-152.865s68.44-152.865 152.865-152.865c84.425 0 152.865 68.44 152.865 152.865 0 0.001 0 0.001 0 0.002v0c-0.1 84.385-68.482 152.765-152.858 152.863h-0.009zM512 359.744c-49.078 0.001-88.863 39.787-88.863 88.865s39.786 88.865 88.865 88.865c49.079 0 88.865-39.786 88.865-88.864v0c-0.002-49.079-39.788-88.865-88.867-88.866v0z" />
<glyph unicode="&#xe922;" glyph-name="maximize" data-tags="maximize" d="M640 895.936v-64h256v-256h64v320h-320zM896 63.936h-256v-64h320v320h-64v-256zM128 319.936h-64v-320h320v64h-256v256zM96 895.936h-32v-320h64v256h256v64h-288z" />
<glyph unicode="&#xe923;" glyph-name="minimize" data-tags="minimize" d="M959.808 640h-256v256h-64v-320h320v64zM704.192 320h-64v-320h64v256h256v64h-256zM63.808 256h256v-256h64v320h-320v-64zM319.808 640h-256v-64h320v320h-64v-256z" />
<glyph unicode="&#xe924;" glyph-name="launch" data-tags="launch" d="M618.752 509.498l277.28 277.312v-210.81h64v320h-320v-64h210.688l-277.222-277.248zM896.032 832h-0.032zM896 64h-256v-64h320v320h-64v-256zM384 64h-256v256h-64v-320h320v64zM128 832h256v64h-320v-320h64v256z" />
<glyph unicode="&#xe925;" glyph-name="filter" data-tags="filter" d="M101.376 915.936l290.624-452.122 0.378-483.75 240.058 239.936-0.403 243.84 290.592 452.096zM568.378 246.496l-112.128-112.064-0.25 348.256-237.376 369.28h586.752l-237.408-369.344z" />
<glyph unicode="&#xe926;" glyph-name="search" data-tags="search" d="M1003.59 1.037l-250.541 250.483c62.591 72.5 100.717 167.647 100.717 271.699 0 230.21-186.622 416.832-416.832 416.832s-416.832-186.622-416.832-416.832c0-230.21 186.622-416.832 416.832-416.832 103.637 0 198.441 37.822 271.36 100.416l-0.557-0.467 250.605-250.579zM84.41 523.328c0 194.903 158 352.902 352.902 352.902s352.902-158 352.902-352.902v0c0-194.903-158-352.902-352.902-352.902s-352.902 158-352.902 352.902v0z" />
<glyph unicode="&#xe927;" glyph-name="zoom-in" data-tags="zoom-in" d="M1003.59 1.037l-250.541 250.483c62.591 72.5 100.717 167.647 100.717 271.699 0 230.21-186.622 416.832-416.832 416.832s-416.832-186.622-416.832-416.832c0-230.21 186.622-416.832 416.832-416.832 103.637 0 198.441 37.822 271.36 100.416l-0.557-0.467 250.605-250.579zM84.41 523.328c0 194.903 158 352.902 352.902 352.902s352.902-158 352.902-352.902v0c0-194.903-158-352.902-352.902-352.902s-352.902 158-352.902 352.902v0zM469.312 748.224h-64v-192.96h-192.32v-64h192.32v-191.040h64v191.040h191.68v64h-191.68v192.96z" />
<glyph unicode="&#xe928;" glyph-name="zoom-out" data-tags="zoom-out" d="M1003.59 1.037l-250.541 250.483c62.591 72.5 100.717 167.647 100.717 271.699 0 230.21-186.622 416.832-416.832 416.832s-416.832-186.622-416.832-416.832c0-230.21 186.622-416.832 416.832-416.832 103.637 0 198.441 37.822 271.36 100.416l-0.557-0.467 250.605-250.579zM84.41 523.328c0 194.903 158 352.902 352.902 352.902s352.902-158 352.902-352.902v0c0-194.903-158-352.902-352.902-352.902s-352.902 158-352.902 352.902v0zM212.966 555.283h448v-64h-448v64z" />
<glyph unicode="&#xe929;" glyph-name="edit" data-tags="edit" d="M941.158 640.134l-237.158 237.126-541.062-540.87-78.592-315.27 315.718 72.454zM171.654 106.88l49.094 196.749 483.251 483.136 146.842-146.88-483.2-488.058z" />
<glyph unicode="&#xe92a;" glyph-name="bug" data-tags="bug" d="M960 416v64h-161.277c-1.816 26.414-5.68 52.098-11.703 76.613l128.637 128.637-45.25 45.25-106.25-106.25c-49.105 112.707-143.683 189.251-252.156 189.251-105.836 0-198.266-73.020-248.32-181.25l-98.274 98.25-45.25-45.25 119.476-119.449c-7.359-27.328-12.308-56.012-14.355-85.801h-161.277v-64h161.277c2.047-29.789 6.996-58.473 14.355-85.801l-119.476-119.449 45.25-45.25 98.274 98.25c50.054-108.23 142.484-181.25 248.32-181.25 108.473 0 203.051 76.543 252.156 189.25l106.25-106.25 45.25 45.25-128.637 128.637c6.024 24.516 9.887 50.2 11.703 76.614h161.277zM512 749.5c80.906 0 151.293-58.598 190.668-145.375h-381.336c39.375 86.777 109.762 145.375 190.668 145.375zM512 146.5c-123.5 0-224 135.25-224 301.5 0 32.332 4.793 62.906 11.824 92.125h424.351c7.032-29.219 11.825-59.793 11.825-92.125 0-166.25-100.5-301.5-224-301.5z" />
<glyph unicode="&#xe92b;" glyph-name="copy" data-tags="copy" d="M746.438 960h-425.798v-172.358h-256v-851.642h638.72v172.365h256v638.515zM639.36 0h-510.72v723.642h192v-615.277h318.72zM895.36 172.365h-510.72v723.635h335.283l175.437-175.584z" />
<glyph unicode="&#xe92c;" glyph-name="trashcan" data-tags="trashcan" d="M639.744 897.542h-255.488v-127.878h-258.765v-63.872h67.283v-766.202h638.458v766.202h62.259v63.872h-253.747zM448.256 833.542h127.488v-63.75h-127.488zM767.232 3.59h-510.458v702.029h510.458zM381.342 577.497l63.999 0.278 1.938-446.441-63.999-0.278-1.938 446.441zM576.72 577.5l63.999 0.278 1.938-446.441-63.999-0.278-1.938 446.441z" />
<glyph unicode="&#xe92d;" glyph-name="language" data-tags="language" d="M774.4 576h-12.8c-12.8 198.4-179.2 352-377.6 352-211.2 0-384-172.8-384-384s172.8-384 384-384c25.6 0 51.2 6.4 76.8 6.4 38.4-25.6 83.2-44.8 134.4-51.2v-153.6l192 153.6c140.8 6.4 236.8 102.4 236.8 230.4 0 134.4-102.4 230.4-249.6 230.4zM697.6 576h-166.4c-6.4 108.8-25.6 204.8-57.6 275.2 121.6-38.4 211.2-140.8 224-275.2zM377.6 864c25.6 0 76.8-108.8 83.2-281.6h-166.4c6.4 172.8 57.6 281.6 83.2 281.6zM70.4 512h166.4c6.4-102.4 19.2-204.8 57.6-268.8-128 38.4-211.2 140.8-224 268.8zM230.4 576h-160c12.8 128 102.4 230.4 217.6 268.8-32-64-51.2-160-57.6-268.8zM377.6 230.4c-25.6 0-76.8 108.8-83.2 281.6h153.6c-44.8-38.4-76.8-96-76.8-166.4 0-38.4 12.8-70.4 25.6-102.4-6.4-6.4-12.8-12.8-19.2-12.8zM774.4 185.6h-12.8l-108.8-83.2v83.2h-25.6c-108.8 0-185.6 70.4-185.6 166.4-6.4 96 70.4 160 185.6 160h147.2c108.8 0 185.6-64 185.6-166.4 0-96-76.8-160-185.6-160z" />
<glyph unicode="&#xe92e;" glyph-name="globe" data-tags="globe" d="M512 958.963c-280.975-2.356-507.84-230.676-507.84-511.983 0-281.12 226.564-509.324 507.057-511.977l0.251-0.002 0.39-0.051h0.211c282.758 0.020 511.971 229.245 511.971 512.006 0 282.773-229.233 512.006-512.006 512.006-0.012 0-0.025 0-0.037 0h0.002zM384.416 478.963c1.185 61.626 6.646 120.978 16.111 178.985l-0.969-7.196c34.039-5.335 73.43-8.483 113.518-8.678l0.203-0.001c39.337 0.205 77.783 3.256 115.359 8.955l-4.37-0.545c8.467-50.732 13.908-109.993 15.066-170.302l0.018-1.218zM639.309 414.963c-1.173-61.233-6.563-120.21-15.903-177.863l0.959 7.175c-33.669 5.22-72.642 8.303-112.299 8.498l-0.207 0.001c-39.865-0.208-78.822-3.339-116.883-9.191l4.403 0.557c-8.388 50.514-13.785 109.536-14.945 169.597l-0.019 1.226zM513.28 706.074c-35.945 0.184-71.086 2.942-105.442 8.098l4.008-0.494c26.829 114.835 67.904 181.274 100.058 181.274s73.318-66.56 100.147-181.6c-29.542-4.456-63.767-7.095-98.573-7.276l-0.198-0.001zM617.798 881.824c77.941-19.415 145.313-57.054 199.844-108.217l-0.241 0.224c-40.715-20.225-88.11-37.157-137.67-48.386l-4.321-0.823c-12.137 59.243-32.075 111.846-59.042 159.98l1.429-2.777zM348.454 725.12c-53.523 12.107-100.591 29.106-144.744 51.085l3.695-1.665c54.057 50.49 121.032 87.836 195.412 106.543l3.084 0.657c-25.432-45.188-45.31-97.591-56.828-153.057l-0.619-3.564zM336.454 662.010c-8.957-54.079-14.749-117.319-16.042-181.662l-0.022-1.378h-254.72c6.807 94.301 41.994 179.266 96.962 247.657l-0.674-0.867c50.296-27.31 108.577-49.291 170.001-62.919l4.495-0.837zM320.39 414.97c1.31-65.388 7.050-128.304 16.943-189.83l-1.026 7.738c-66.19-14.615-124.671-36.551-178.861-65.472l3.731 1.818c-53.85 67.317-88.752 151.906-95.455 244.315l-0.084 1.445zM348.198 169.85c12.135-59.405 32.1-112.159 59.116-160.432l-1.433 2.787c-77.919 19.478-145.259 57.17-199.748 108.378l0.234-0.218c40.669 20.311 88 37.332 137.504 48.652l4.327 0.832zM411.558 181.261c30.009 4.593 64.765 7.313 100.12 7.5l0.2 0.001c35.557-0.179 70.325-2.877 104.328-7.922l-3.982 0.485c-26.803-115.405-67.981-182.189-100.224-182.349h-0.32c-32.224 0.282-73.357 67.021-100.128 182.285zM675.59 169.984c53.89-12.095 101.311-29.175 145.777-51.303l-3.697 1.665c-54.336-51.059-121.792-88.781-196.758-107.57l-3.082-0.654c25.63 45.549 45.621 98.378 57.14 154.301l0.613 3.562zM687.488 233.126c8.845 53.709 14.57 116.533 15.857 180.446l0.022 1.378h255.034c-6.789-93.832-41.68-178.4-96.2-246.591l0.686 0.888c-50.563 27.409-109.157 49.438-170.91 63.047l-4.495 0.831zM703.366 478.95c-1.31 65.587-7.079 128.7-17.030 190.414l1.030-7.746c66.271 14.535 124.837 36.352 179.151 65.128l-3.791-1.832c53.937-67.357 88.892-152.022 95.59-244.521l0.084-1.444z" />
<glyph unicode="&#xe92f;" glyph-name="avatar" data-tags="avatar" d="M64-64h896c-0.153 141.324-114.677 255.847-255.986 256h-384.014c-141.324-0.153-255.847-114.677-256-255.986v-0.014zM320 128h384c82.803-0.262 153.223-52.987 179.784-126.664l0.421-1.336h-744.41c26.982 75.013 97.402 127.738 180.173 128h0.032zM495.36 896c-132.133-0.153-239.207-107.226-239.36-239.345v-161.205c0.135-132.159 107.209-239.264 239.343-239.45h33.297c132.152 0.186 239.225 107.291 239.36 239.437v161.203c-0.153 132.133-107.226 239.207-239.345 239.36h-0.015zM704 656.64v-161.19c-0.087-96.832-78.536-175.311-175.347-175.45h-33.293c-96.824 0.138-175.273 78.618-175.36 175.441v161.199c0.131 96.796 78.564 175.229 175.347 175.36h33.293c96.796-0.131 175.229-78.564 175.36-175.347v-0.013z" />
<glyph unicode="&#xe930;" glyph-name="profile" data-tags="profile" d="M283.872 31.814h-64v48c0.12 94.576 76.768 171.21 171.338 171.309h238.915c94.577-0.102 171.221-76.735 171.341-171.297v-42.699h-64v42.688c-0.073 59.247-48.091 107.254-107.335 107.309h-238.911c-59.251-0.055-107.271-48.061-107.347-107.301v-0.007zM511.219 317.126c-94.593 0.12-171.242 76.778-171.347 171.363v79.639c-0.002 0.311-0.003 0.679-0.003 1.047 0 94.632 76.715 171.347 171.347 171.347s171.347-76.715 171.347-171.347c0-0.368-0.001-0.736-0.003-1.104v0.056-79.629c-0.084-94.602-76.742-171.271-171.331-171.373h-0.010zM511.219 675.526c-59.265-0.098-107.278-48.13-107.347-107.392v-79.636c-0.002-0.246-0.003-0.537-0.003-0.829 0-59.286 48.061-107.347 107.347-107.347s107.347 48.061 107.347 107.347c0 0.291-0.001 0.583-0.003 0.873v-0.045 79.629c-0.084 59.256-48.088 107.271-107.331 107.373h-0.010zM512.493 896.096v0c247.293-0.225 447.675-200.747 447.675-448.070 0-247.462-200.608-448.070-448.070-448.070s-448.070 200.608-448.070 448.070c0 78.616 20.246 152.503 55.81 216.731l-1.168-2.299c77.635 140.253 224.729 233.638 393.634 233.638 0.067 0 0.134 0 0.201 0h-0.010zM512.454 960.096c-0.193 0-0.422 0-0.651 0-282.862 0-512.166-229.305-512.166-512.166s229.305-512.166 512.166-512.166c282.862 0 512.166 229.305 512.166 512.166 0 192.915-106.659 360.919-264.225 448.258l-2.625 1.335c-70.651 39.292-154.94 62.465-244.633 62.573h-0.033z" />
<glyph unicode="&#xe931;" glyph-name="undo" data-tags="undo" d="M958.669 366.784c-0.149 156.919-127.257 284.102-284.134 284.371h-0.026l-218.688 1.594 119.354 119.347-41.504 41.498-189.811-189.875 189.811-189.798 41.504 41.498-118.765 118.701 217.888-1.587c124.162-0.682 224.552-101.493 224.552-225.75s-100.389-225.068-224.487-225.75h-609.031v-58.624h608.966c156.984 0.178 284.196 127.393 284.371 284.361v0.017z" />
<glyph unicode="&#xe932;" glyph-name="restore" data-tags="restore" d="M415.251 340.378l-41.491 41.498-118.995-119.040v249.165c0.063 142.798 115.837 258.534 258.643 258.534 142.845 0 258.643-115.799 258.643-258.643 0-99.511-56.198-185.897-138.587-229.151l-1.419-0.679 27.002-52.122c102.816 53.915 171.757 159.903 171.757 281.994 0 175.278-142.091 317.37-317.37 317.37-175.255 0-317.331-142.053-317.37-317.298v-249.15l-119.002 119.040-41.498-41.498 189.843-189.894zM513.408 640c-70.692 0-128-57.308-128-128s57.308-128 128-128c70.692 0 128 57.308 128 128v0c-0.084 70.659-57.341 127.916-127.992 128h-0.008zM513.408 448c-35.346 0-64 28.654-64 64s28.654 64 64 64c35.346 0 64-28.654 64-64v0c-0.033-35.333-28.667-63.967-63.997-64h-0.003z" />
<glyph unicode="&#xe933;" glyph-name="reload" data-tags="reload" d="M471.68 66.221l-73.715-58.656 39.872-50.125 164.813 131.2-131.181 164.858-50.061-39.872 66.093-83.066c-165.729 12.542-295.448 150.095-295.448 317.947 0 88.193 35.812 168.022 93.687 225.739l0.007 0.007-45.248 45.248c-69.487-69.476-112.466-165.462-112.466-271.487 0-197.845 149.657-360.736 341.94-381.643l1.706-0.151zM626.061 888.435l-39.872 50.125-164.813-131.187 131.155-164.813 50.061 39.878-66.131 83.091c165.762-12.532 295.511-150.11 295.511-317.993 0-88.212-35.821-168.057-93.711-225.782l-0.008-0.008 45.248-45.248c69.488 69.483 112.468 165.476 112.468 271.508 0 197.821-149.603 360.7-341.843 381.672l-1.71 0.151z" />
<glyph unicode="&#xe934;" glyph-name="link" data-tags="link" d="M602.118 405.197c11.582-11.581 27.581-18.745 45.254-18.745s33.673 7.163 45.254 18.745l181.018 181.043c11.583 11.582 18.748 27.583 18.748 45.258s-7.165 33.676-18.748 45.258l-132.934 132.909c-11.582 11.581-27.581 18.745-45.254 18.745s-33.673-7.163-45.254-18.745l-181.018-181.024c-11.581-11.582-18.745-27.581-18.745-45.254s7.163-33.673 18.745-45.254l42.669-42.669-47.296-47.302-42.675 42.675c-11.582 11.581-27.581 18.745-45.254 18.745s-33.673-7.163-45.254-18.745l-181.018-181.024c-11.581-11.582-18.745-27.581-18.745-45.254s7.163-33.673 18.745-45.254l132.934-132.934c11.582-11.581 27.581-18.745 45.254-18.745s33.673 7.163 45.254 18.745l181.024 181.018c11.583 11.582 18.748 27.583 18.748 45.258s-7.165 33.676-18.748 45.258l-45.018 45.011 47.302 47.302zM509.568 312.646l-181.024-181.018-132.934 132.928 181.018 181.018 42.675-42.675-58.88-58.88 45.254-45.248 58.88 58.88zM514.438 583.366l181.018 181.018 132.934-132.941-181.018-180.992-45.011 45.018 55.795 55.795-45.248 45.248-55.802-55.795z" />
<glyph unicode="&#xe935;" glyph-name="info" data-tags="info" d="M512-62.976c0.002 0 0.004 0 0.006 0 282.208 0 510.982 228.775 510.982 510.982s-228.775 510.982-510.982 510.982c-282.208 0-510.982-228.775-510.982-510.982 0-0.002 0-0.004 0-0.007v0c0.004-282.203 228.773-510.972 510.976-510.976v0zM512 894.982c0.002 0 0.004 0 0.006 0 246.862 0 446.982-200.121 446.982-446.982s-200.121-446.982-446.982-446.982c-246.862 0-446.982 200.121-446.982 446.982 0 0 0 0 0 0v0c0.291 246.742 200.234 446.687 446.947 446.982h0.029zM556.531 204.314c0-24.163-19.937-43.75-44.531-43.75s-44.531 19.588-44.531 43.75c0 24.163 19.937 43.75 44.531 43.75s44.531-19.588 44.531-43.75zM480 703.981h64v-384h-64v384z" />
<glyph unicode="&#xe936;" glyph-name="help" data-tags="help" d="M515.18 953.64c-279.851 0-508.82-228.969-508.82-508.82s228.969-508.82 508.82-508.82c279.851 0 508.82 228.969 508.82 508.82-6.36 279.851-228.969 508.82-508.82 508.82 0 0 0 0 0 0zM515.18-0.398c-248.050 0-445.217 197.168-445.217 445.217s197.168 445.217 445.217 445.217c248.050 0 445.217-197.168 445.217-445.217-6.36-241.689-203.528-445.217-445.217-445.217zM470.658 203.13c0 25.441 19.081 44.522 44.522 44.522s44.522-19.081 44.522-44.522-19.081-44.522-44.522-44.522c-25.441 0-44.522 19.081-44.522 44.522zM546.981 317.615h-63.602c0 50.882 82.683 165.366 89.043 171.727 19.081 25.441 31.801 44.522 31.801 69.963 0 31.801-25.441 76.323-95.404 76.323-89.043 0-89.043-63.602-89.043-76.323h-63.602c0 69.963 50.882 139.925 152.646 139.925 108.124 0 159.006-69.963 159.006-139.925 0-50.882-25.441-82.683-50.882-114.484 0 0-69.963-101.764-69.963-127.205z" />
<glyph unicode="&#xe937;" glyph-name="triangle" data-tags="triangle" d="M963.84 56.685h-903.68l451.84 782.63zM171.027 120.685h681.939l-340.966 590.63z" />
<glyph unicode="&#xe938;" glyph-name="graph-circle" data-tags="graph-circle" d="M448 704v64c-212.077 0-384-171.923-384-384s171.923-384 384-384c212.077 0 384 171.923 384 384v0h-64c0-176.731-143.269-320-320-320s-320 143.269-320 320c0 176.731 143.269 320 320 320v0zM576 896h-32v-416h416v32c-0.24 211.981-172.019 383.76-383.977 384h-0.023zM608 544v286.47c151.367-15.913 270.528-135.096 286.288-285.081l0.118-1.389z" />
<glyph unicode="&#xe939;" glyph-name="graph-line" data-tags="graph-line" d="M129.216 833.792v-707.52h-1.216v-64h768v64h-126.336v382.272h-64v-382.272h-128v491.136h-64v-491.136h-129.6v254.272h-64v-254.272h-126.848v707.52h-64z" />
<glyph unicode="&#xe93a;" glyph-name="document" data-tags="document" d="M896 703.782l-256 256.218h-512v-1024h768zM832 0h-640v896h421.459l218.541-218.714zM261.338 705.267h255.571v-63.891h-255.571v63.891zM261.338 513.594h447.245v-63.891h-447.245v63.891zM261.338 321.914h447.245v-63.891h-447.245v63.891z" />
<glyph unicode="&#xe93b;" glyph-name="file" data-tags="file" d="M896 703.002l-256 256.224h-512v-1024h768zM832-0.774h-640v896h421.459l218.541-218.746z" />
<glyph unicode="&#xe93c;" glyph-name="folder" data-tags="folder" d="M319.808 863.488l-319.808 2.298v-835.571h1024v704h-576zM960 94.214h-896v707.11l228.96-1.645 128.378-129.459h538.662z" />
<glyph unicode="&#xe93d;" glyph-name="image" data-tags="image" d="M0 217.623v-281.457h1023.968v1023.994h-1023.968zM63.998 0.164v122.383l895.972 298.711v-421.107zM63.998 896.162h895.972v-407.552l-895.972-298.711v706.263zM352.386 452.675c87.129 0 157.761 70.632 157.761 157.761s-70.632 157.761-157.761 157.761c-87.129 0-157.761-70.632-157.761-157.761 0-0.002 0-0.004 0-0.007v0c0-87.126 70.629-157.755 157.755-157.755 0.002 0 0.004 0 0.007 0v0zM352.386 704.187c51.784 0 93.763-41.979 93.763-93.763s-41.979-93.763-93.763-93.763c-51.784 0-93.763 41.979-93.763 93.763 0 0.002 0 0.004 0 0.007v0c0.058 51.761 42.003 93.705 93.758 93.763h0.005z" />
<glyph unicode="&#xe93e;" glyph-name="upload" data-tags="upload" d="M768.64 384v-64h190.976v-256.384h-895.232v256.384h192.192v64h-256.192v-384.384h1023.232v384.384h-254.976zM169.408 553.728l45.184-45.12 265.472 265.472v-562.88h63.872v562.88l265.472-265.472 45.184 45.12-342.592 342.656-342.592-342.656z" />
<glyph unicode="&#xe93f;" glyph-name="logout" data-tags="logout" d="M448 191.36h-64v-190.976h-256.384v895.232h256.384v-192.192h64v256.192h-384.384v-1023.232h384.384v254.976zM617.728 790.592l-45.12-45.184 265.472-265.472h-562.88v-63.872h562.88l-265.472-265.472 45.12-45.184 342.656 342.592-342.656 342.592z" />
<glyph unicode="&#xe940;" glyph-name="download-save" data-tags="download-save" d="M768.64 368v-64h190.976v-256.384h-895.232v256.384h192.192v64h-256.192v-384.384h1023.232v384.384h-254.976zM854.592 537.792l-45.184 45.12-265.472-265.408v562.88h-63.872v-562.88l-265.472 265.408-45.184-45.12 342.592-342.592 342.592 342.592z" />
<glyph unicode="&#xe941;" glyph-name="network" data-tags="network" d="M703.969 703.936c0 0.068 0 0.149 0 0.23 0 106.039-85.961 192-192 192s-192-85.961-192-192c0-105.202 84.61-190.642 189.494-191.984l0.127-0.001-306.934-576.116h618.688l-307.704 576.042c105.235 1.007 190.174 86.473 190.328 191.815v0.015zM383.969 703.936c0 70.692 57.308 128 128 128s128-57.308 128-128c0-70.692-57.308-128-128-128v0c-70.654 0.095-127.905 57.346-128 127.991v0.009zM309.281 0.064l202.438 379.875 202.875-379.875zM832 892.438h64v-320h-64v320zM960 959.939h64v-448h-64v448zM128.031 892.438h64v-320h-64v320zM0 959.939h64v-448h-64v448z" />
<glyph unicode="&#xe942;" glyph-name="notification" data-tags="notification" d="M278.656 429.030c-59.286-43.546-97.338-112.994-97.338-191.33 0-7.959 0.393-15.827 1.16-23.584l-0.079 0.981v-32h199.040c-0.173-2.438-0.672-4.787-0.672-7.251 0-72.47 58.749-131.219 131.219-131.219s131.219 58.749 131.219 131.219v0c0 2.464-0.499 4.813-0.672 7.251h199.040v32c0.69 6.781 1.083 14.655 1.083 22.621 0 78.325-38.042 147.765-96.657 190.851l-0.657 0.461-10.688 10.624c-43.872 43.942-43.373 84.064-42.189 172l0.378 47.315c0.336 4.108 0.528 8.893 0.528 13.723 0 98.68-79.996 178.675-178.675 178.675-0.948 0-1.895-0.007-2.84-0.022l0.143 0.002c-0.806 0.013-1.758 0.021-2.711 0.021-98.673 0-178.662-79.99-178.662-178.662 0-4.834 0.192-9.624 0.569-14.361l-0.040 0.625 0.378-47.315c1.184-87.936 1.683-128.058-42.189-172zM512 108.659c-37.103 0.026-67.175 30.097-67.2 67.198v0.002c0.328 2.771 0.805 5.232 1.442 7.627l-0.085-0.376h131.686c0.569-2.032 1.052-4.493 1.353-7.009l0.023-0.242c-0.055-37.098-30.119-67.156-67.215-67.2h-0.004zM334.592 394.406c63.002 63.002 62.208 124.691 60.928 218.125l-0.378 46.438c-0.569 4.281-0.894 9.232-0.894 14.258 0 63.058 51.118 114.176 114.176 114.176 1.257 0 2.51-0.020 3.757-0.061l-0.182 0.005c1.049 0.035 2.281 0.054 3.519 0.054 63.079 0 114.214-51.136 114.214-114.214 0-5.012-0.323-9.948-0.949-14.789l0.060 0.572-0.365-46.438c-1.28-93.44-2.061-155.123 60.941-218.125l10.746-10.752c55.75-55.494 73.126-72.813 76.691-136.557h-529.702c3.565 63.744 20.941 81.062 76.691 136.557z" />
<glyph unicode="&#xe944;" glyph-name="terminal" data-tags="terminal" d="M960 768.102v-640.218h-896v640.218h896zM1024 832.102h-1024v-768.218h1024v768.218zM278.208 254.656l-44.416 46.144 152.704 146.752-152.704 146.816 44.416 46.144 200.64-192.96-200.64-192.896zM480.346 329.184h256.032v-64h-256.032v64z" />
<glyph unicode="&#xe945;" glyph-name="calendar" data-tags="calendar" d="M192.403 444.877h128v-64h-128v64zM448.403 444.877h128v-64h-128v64zM704.403 444.877h128v-64h-128v64zM192.403 252.877h128v-64h-128v64zM448.403 252.877h128v-64h-128v64zM704.403 252.877h128v-64h-128v64zM832.467 830.56v66.88h-64v-66.88h-515.405v66.88h-64v-66.88h-189.062v-832h1024v832zM960 62.56h-896v510.317h896zM960 636.877h-896v129.683h125.062v-64h64v64h515.405v-64h64v64h127.533z" />
<glyph unicode="&#xe946;" glyph-name="time" data-tags="time" d="M512 950.253c-282.201-0.004-510.97-228.774-510.97-510.976 0-282.204 228.772-510.976 510.976-510.976s510.976 228.772 510.976 510.976v0c-0.004 282.205-228.777 510.976-510.982 510.976v0zM512-7.68c-246.855 0.004-446.97 200.12-446.97 446.976 0 246.858 200.118 446.976 446.976 446.976s446.976-200.118 446.976-446.976v0c-0.288-246.744-200.237-446.692-446.955-446.976h-0.027zM543.872 759.296h-64l0.128-323.008v-29.056l260.16 0.128v64l-196.16-0.064-0.128 288z" />
<glyph unicode="&#xe947;" glyph-name="camera-photo" data-tags="camera-photo" d="M664.448 798.534l64-127.994h231.552v-573.069h-896v573.050h232.589l17.28 36.71 43.046 91.302h307.533zM704 862.534h-387.642l-60.352-128h-256.006v-701.082h1024v701.069h-256l-64 128zM512 584.32c0.002 0 0.004 0 0.006 0 93.759 0 169.766-76.007 169.766-169.766s-76.007-169.766-169.766-169.766c-93.753 0-169.755 75.996-169.766 169.746v0.001c0.098 93.721 76.040 169.673 169.749 169.786h0.011zM512 648.32c-0.002 0-0.004 0-0.006 0-129.106 0-233.766-104.661-233.766-233.766s104.661-233.766 233.766-233.766c129.106 0 233.766 104.661 233.766 233.766v0c0 0.002 0 0.004 0 0.006 0 129.102-104.658 233.76-233.76 233.76v0z" />
<glyph unicode="&#xe948;" glyph-name="cobra" data-tags="cobra" d="M900.998-64h-691.686v32c0.616 156.587 104.637 288.712 247.291 331.677l2.462 0.637c0.768 8.816 1.205 19.075 1.205 29.436 0 79.972-26.073 153.854-70.181 213.61l0.695-0.985c-26.492 20.263-60.085 32.468-96.529 32.468-8.317 0-16.485-0.636-24.458-1.861l0.891 0.113-25.6-3.123-135.341 390.029 45.85-0.813c120.273-5.883 230.816-42.855 325.171-102.977l-2.688 1.601c160.218-106.688 220.595-362.31 224.282-576.749 118.294-56.083 198.639-174.524 198.639-311.73 0-0.469-0.001-0.937-0.003-1.405v0.073zM275.155 0h560.045c-11.964 105.298-80.753 192.024-174.546 229.522l-1.889 0.667-20.25 8v21.76c0 201.69-51.469 448.378-195.974 544.64-68.836 44.030-150.464 74.599-238.127 85.91l-2.948 0.311 87.629-252.73c4.265 0.327 9.236 0.514 14.251 0.514 51.899 0 99.129-19.992 134.408-52.695l-0.127 0.117c104.218-111.936 84.717-305.997 83.84-314.374l-2.438-23.040-22.72-4.877c-117.548-26.23-206.509-122.817-221.018-242.365l-0.134-1.36z" />
<glyph unicode="&#xe949;" glyph-name="email" data-tags="email" d="M0.864 767.456v-638.912h1022.272v638.912zM904.186 703.456l-392.186-280.954-392.749 280.96zM64.864 703.456h0.128l-0.128-0.179zM959.136 192.544h-894.272v471.174l447.136-319.968 447.13 320.384z" />
<glyph unicode="&#xe94a;" glyph-name="position" data-tags="position" d="M512.058 766.682c-0.002 0-0.004 0-0.006 0-70.484 0-127.622-57.138-127.622-127.622s57.138-127.622 127.622-127.622c70.484 0 127.622 57.138 127.622 127.622v0c0 70.482-57.135 127.619-127.616 127.622v0zM512.058 575.437c-0.002 0-0.004 0-0.006 0-35.138 0-63.622 28.485-63.622 63.622s28.485 63.622 63.622 63.622c35.138 0 63.622-28.485 63.622-63.622v0c-0.040-35.119-28.497-63.579-63.612-63.622h-0.004zM512 960.128c-176.792-0.004-320.109-143.323-320.109-320.115 0-0.004 0-0.009 0-0.013v0c0-256.090 320.109-704.128 320.109-704.128s320.109 448.038 320.109 704.128c0 0.004 0 0.008 0 0.013 0 176.792-143.317 320.111-320.108 320.115h-0.001zM255.891 640c0 141.445 114.664 256.109 256.109 256.109s256.109-114.664 256.109-256.109v0c0-161.101-155.014-434.31-256.109-590.080-101.12 155.789-256.109 428.998-256.109 590.080z" />
<glyph unicode="&#xe94b;" glyph-name="map" data-tags="map" d="M351.066 895.514l-349.037-105.626-3.437-834.816 352.499 105.69 320.032-96.064 348.941 105.754v834.752l-348.998-105.754zM383.034 819.2l256.122-76.902v-701.267l-256.122 76.89zM65.722 742.4l253.44 76.698v-701.165l-256.32-76.858zM956.16 117.824l-253.152-76.691v701.235l253.152 76.704z" />
<glyph unicode="&#xe94c;" glyph-name="message-double" data-tags="message-double" d="M320.64 379.386v-229.037h456.198l183.802-187.91v640.378h-190.010v254.080h-707.27v-726.822l207.802 249.312zM896.64 134.099v-14.72l-92.87 94.95h-419.13v324.486h512zM127.36 306.822v486.067h579.283v-190.080h-386.003v-159.424h-79.418z" />
<glyph unicode="&#xe94d;" glyph-name="message-single" data-tags="message-single" d="M960 192.64v640h-896v-835.546l256 195.546zM281.146 243.526l-153.146-116.998v642.112h768v-512h-597.651z" />
<glyph unicode="&#xe94e;" glyph-name="eye-solid" data-tags="eye-solid" d="M512 784.64c-273.53 0-501.19-244.48-501.19-336.64s227.661-336.64 501.19-336.64c275.686 0 501.19 254.125 501.19 336.64s-225.504 336.64-501.19 336.64zM672.685 448c0-88.366-71.634-160-160-160s-160 71.634-160 160c0 88.366 71.634 160 160 160v0c88.319-0.116 159.884-71.681 160-159.989v-0.011z" />
<glyph unicode="&#xe94f;" glyph-name="eye" data-tags="eye" d="M512 111.36c275.686 0 501.19 254.125 501.19 336.64s-225.504 336.64-501.19 336.64c-273.53 0-501.19-244.48-501.19-336.64s227.661-336.64 501.19-336.64zM512 720.64c239.469 0 433.53-228.314 437.19-272.64-3.661-44.314-197.722-272.64-437.19-272.64-250.656 0-437.19 228.826-437.19 272.64s186.534 272.64 437.19 272.64zM512 246.003c111.56 0 201.997 90.437 201.997 201.997s-90.437 201.997-201.997 201.997c-111.56 0-201.997-90.437-201.997-201.997v0c0.138-111.504 90.493-201.859 201.984-201.997h0.013zM512 585.997c76.214 0 137.997-61.783 137.997-137.997s-61.783-137.997-137.997-137.997c-76.214 0-137.997 61.783-137.997 137.997v0c0.098 76.174 61.823 137.899 137.987 137.997h0.009z" />
<glyph unicode="&#xe950;" glyph-name="code" data-tags="code" d="M393.063 201.809l163.633 511.877 60.998-19.499-163.633-511.877-60.998 19.499zM739.008 168.96l-44.352 46.080 236.992 227.776-236.992 227.776 44.352 46.144 284.992-273.92-284.992-273.856zM284.992 168.96l-284.992 273.856 284.992 273.92 44.352-46.144-236.992-227.776 236.992-227.776-44.352-46.080z" />
<glyph unicode="&#xe951;" glyph-name="lock-locked" data-tags="lock-locked" d="M704 606.080v64.256c0 106.039-85.961 192-192 192s-192-85.961-192-192v0-64.256h-192v-572.416h768v572.416zM384 670.336c0 70.692 57.308 128 128 128s128-57.308 128-128v0-64.256h-256zM832 97.664h-640v444.416h640zM479.987 409.773h64v-186.938h-64v186.938z" />
<glyph unicode="&#xe952;" glyph-name="lock-unlocked" data-tags="lock-unlocked" d="M832 922.88c-105.99-0.12-191.88-86.010-192-191.989v-124.811h-512v-572.416h768v572.416h-192v124.8c0.084 70.659 57.341 127.916 127.992 128h0.008c0.871 0.022 1.896 0.034 2.925 0.034 68.992 0 124.938-55.861 125.075-124.821v-64.013h64v64c0 0.128 0 0.28 0 0.431 0 104.052-84.351 188.403-188.403 188.403-1.265 0-2.527-0.012-3.786-0.037l0.189 0.003zM832 97.664h-640v444.416h640zM479.821 409.517h64v-186.938h-64v186.938z" />
<glyph unicode="&#xe953;" glyph-name="loudspeaker" data-tags="loudspeaker" d="M833.037 607.482c-0.704 0-1.363-0.186-2.074-0.218v256.25s-287.693-219.437-576-219.437h-192v-320.966h99.494l-99.046-192.55 183.123-98.061 142.080 275.782c169.335-43.008 317.368-116.452 445.191-214.857l-2.842 2.102v256.179c0.71-0.032 1.37-0.224 2.074-0.224 70.692 0 128 57.308 128 128s-57.308 128-128 128v0zM219.411 119.61l-70.253 37.69 85.28 165.811h22.291c23.077-0.042 45.793-1.38 68.135-3.945l-2.772 0.259zM766.963 217.53c-144.004 96.89-318.927 158.684-507.511 169.476l-2.723 0.124h-129.766v192.947h128c191.281 10.792 366.62 70.612 516.196 166.973l-4.196-2.531zM833.037 415.494c-0.736 0-1.344 0.41-2.074 0.41v127.174c0.73 0 1.338 0.403 2.074 0.403 35.346 0 64-28.654 64-64s-28.654-64-64-64v0z" />
<glyph unicode="&#xe954;" glyph-name="message-contact-us" data-tags="message-contact-us" d="M287.642 550.125h64v-64h-64v64zM479.994 550.125h64v-64h-64v64zM672.352 550.125h64v-64h-64v64zM960 192.64v640h-896v-835.546l256 195.546zM281.146 243.526l-153.146-116.998v642.112h768v-512h-597.651z" />
<glyph unicode="&#xe955;" glyph-name="message-smiley" data-tags="message-smiley" d="M320 625.062h128v-64h-128v64zM576 625.062h128v-64h-128v64zM323.782 437.376c50.374-42.978 116.242-69.126 188.218-69.126s137.844 26.148 188.623 69.464l-0.406-0.338-41.498 48.749c-39.27-33.496-90.615-53.876-146.72-53.876s-107.45 20.379-147.036 54.139l0.316-0.263zM960 192.64v640h-896v-835.546l256 195.546zM281.146 243.526l-153.146-116.998v642.112h768v-512h-597.651z" />
<glyph unicode="&#xe956;" glyph-name="shopping-cart" data-tags="shopping-cart" d="M1020.877 758.81h-813.946l-12.211 128.23-195.046 0.16v-64l136.858-0.16 67.155-704.986h86.566c0-69.742 56.537-126.278 126.278-126.278s126.278 56.537 126.278 126.278v0h81.92c0-1.773-0.384-3.456-0.314-5.248 2.975-67.419 58.306-120.963 126.166-121.062h0.010c1.722 0 3.469 0 5.222 0.064 67.641 2.693 121.456 58.18 121.456 126.236 0 69.77-56.56 126.33-126.33 126.33-46.169 0-86.553-24.767-108.592-61.74l-0.32-0.579h-117.229c-22.102 37.494-62.281 62.255-108.243 62.255s-86.141-24.761-107.924-61.671l-0.319-0.584h-46.438l-12.64 132.691h720.486zM748 180.25c0.845 0.064 1.722 0.064 2.56 0.064 34.362-0.045 62.2-27.91 62.2-62.278 0-33.454-26.378-60.747-59.469-62.216l-0.132-0.005c-1.052-0.064-2.283-0.101-3.521-0.101-33.303 0-60.405 26.552-61.29 59.642l-0.002 0.082c-0.032 0.743-0.050 1.614-0.050 2.489 0 33.509 26.424 60.847 59.572 62.313l0.132 0.005zM416.531 180.314c0.002 0 0.004 0 0.006 0 34.399 0 62.285-27.886 62.285-62.285s-27.886-62.285-62.285-62.285c-34.399 0-62.285 27.886-62.285 62.285 0 0.011 0 0.022 0 0.034v-0.002c0.055 34.367 27.909 62.21 62.275 62.246h0.004zM912.64 378.746h-669.498l-30.112 316.064h736.032z" />
<glyph unicode="&#xe957;" glyph-name="favorite" data-tags="favorite" d="M225.491 12.109l289.523 152.211 289.523-152.211-55.302 322.387 234.24 228.32-323.699 47.034-144.762 293.325-144.762-293.325-323.699-47.034 234.24-228.32zM184.083 518.125l228.653 33.229 102.278 207.206 102.259-207.206 228.646-33.222-165.446-161.293 5.69-33.158 33.37-194.56-204.499 107.526-204.506-107.526 39.059 227.718-24.096 23.488z" />
<glyph unicode="&#xe958;" glyph-name="favorite-solid" data-tags="favorite-solid" d="M225.491 12.109l289.523 152.211 289.523-152.211-55.302 322.387 234.24 228.32-323.699 47.034-144.762 293.325-144.762-293.325-323.699-47.034 234.24-228.32z" />
<glyph unicode="&#xe959;" glyph-name="heart" data-tags="heart" d="M713.6 797.536c0.361 0.003 0.789 0.004 1.217 0.004 100.076 0 181.203-81.127 181.203-181.203 0-0.949-0.007-1.896-0.022-2.841l0.002 0.143c0-141.734-143.392-272.832-362.086-472.774l-21.76-19.77-22.554 20.666c-217.747 198.656-361.6 329.92-361.6 471.878-0.013 0.803-0.020 1.75-0.020 2.698 0 100.076 81.127 181.203 181.203 181.203 0.428 0 0.855-0.001 1.283-0.004h-0.066c61.125-0.582 115.706-28.112 152.513-71.263l0.235-0.283 48.851-57.715 48.851 57.715c37.043 43.434 91.624 70.964 152.649 71.545l0.1 0.001zM713.6 861.536c-80.64-0.687-152.678-36.936-201.293-93.808l-0.307-0.368c-48.922 57.24-120.96 93.489-201.481 94.175l-0.119 0.001c-0.497 0.004-1.084 0.006-1.672 0.006-135.171 0-244.749-109.578-244.749-244.749 0-1.109 0.007-2.217 0.022-3.322l-0.002 0.168c0-170.368 152.32-309.19 383.040-519.68l64.96-59.52 64.96 59.040c230.72 210.97 383.040 349.792 383.040 520.16 0.013 0.938 0.020 2.045 0.020 3.155 0 135.171-109.578 244.749-244.749 244.749-0.588 0-1.175-0.002-1.762-0.006h0.090z" />
<glyph unicode="&#xe95a;" glyph-name="medal" data-tags="medal" d="M512 955.123c-0.083 0-0.181 0-0.279 0-195.352 0-353.715-158.364-353.715-353.715 0-111.254 51.363-210.511 131.67-275.352l0.673-0.526v-384.64l224.211 149.299 224.224-149.312v388.774c77.979 65.344 127.212 162.775 127.212 271.706 0 195.38-158.387 353.766-353.766 353.766-0.081 0-0.162 0-0.243 0h0.013zM514.56 167.040l-160.218-106.688v224.256c45.945-23.652 100.261-37.517 157.816-37.517 59.456 0 115.456 14.796 164.519 40.907l-1.894-0.92v-226.733zM512 311.123c-0.002 0-0.004 0-0.006 0-160.164 0-290.003 129.839-290.003 290.003s129.839 290.003 290.003 290.003c160.164 0 290.003-129.839 290.003-290.003v0c-0.175-160.092-129.905-289.825-289.979-290.003h-0.017zM512 783.315c-100.62 0-182.189-81.569-182.189-182.189s81.569-182.189 182.189-182.189c100.62 0 182.189 81.569 182.189 182.189v0c-0.12 100.572-81.617 182.069-182.177 182.189h-0.012zM512 482.938c-65.274 0-118.189 52.915-118.189 118.189s52.915 118.189 118.189 118.189c65.274 0 118.189-52.915 118.189-118.189v0c-0.073-65.245-52.944-118.116-118.182-118.189h-0.007z" />
<glyph unicode="&#xe95b;" glyph-name="trophy" data-tags="trophy" d="M821.875 828.742c3.258 37.446 4.922 69.67 4.922 99.258v32h-629.466v-32c0-29.587 1.664-61.811 4.922-99.258h-186.394v-32c0-114.906 142.272-358.675 290.042-381.101 22.48-47.528 52.735-87.809 89.552-120.939l0.342-0.303c-12.582-66.243-43.381-123.839-86.935-169.064l0.099 0.104h-112.64v-191.942h629.466v192h-110.534c-43.243 45.273-73.975 102.845-86.43 166.945l-0.342 2.111c37.088 33.405 67.29 73.639 88.764 118.824l0.977 2.283c147.725 22.554 289.92 266.208 289.92 381.082v32zM84.013 764.742h125.216c12.684-101.255 34.908-192.895 66.2-280.217l-2.84 9.081c-90.582 65.448-157.317 158.973-187.746 267.665l-0.83 3.471zM761.811 61.498v-63.942h-501.466v63.942zM629.734 125.498h-235.034c24.354 39.262 44.259 84.647 57.342 132.84l0.834 3.608c17.49-7.19 37.772-11.523 59.021-11.889l0.147-0.002c21.482 0.367 41.844 4.734 60.512 12.385l-1.113-0.404c13.998-51.841 33.946-97.25 59.596-138.762l-1.279 2.225zM512.045 314.054c-148.998 0-242.842 327.821-250.24 581.946h500.531c-7.411-254.125-101.286-581.946-250.291-581.946zM751.603 493.683c28.422 78.217 50.623 169.832 62.631 264.626l0.665 6.433h125.088c-31.245-112.103-97.906-205.589-186.947-270.068l-1.437-0.991z" />
<glyph unicode="&#xe95c;" glyph-name="video-back" data-tags="video-back" d="M33.523 448l473.248-320.378v302.534l446.829-302.502v640.691l-446.829-302.426v302.426zM889.6 647.718v-399.437l-295.040 199.718zM442.771 248.282l-295.066 199.718 295.040 199.68z" />
<glyph unicode="&#xe95d;" glyph-name="video-forward" data-tags="video-forward" d="M990.477 447.968l-473.248 320.378v-302.502l-446.829 302.502v-640.691l446.829 302.426v-302.445zM134.4 248.282v399.437l295.040-199.75zM581.229 647.718l295.040-199.75-295.040-199.68z" />
<glyph unicode="&#xe95e;" glyph-name="video-pause" data-tags="video-pause" d="M394.566 704v-512h-138.566v512h138.566zM458.566 768h-266.566v-640h266.566v640zM768 704v-512h-138.566v512h138.566zM832 768h-266.566v-640h266.566v640z" />
<glyph unicode="&#xe95f;" glyph-name="video-play" data-tags="video-play" d="M256.090 36.378v823.245l608.128-411.622zM320.090 739.002v-582.003l429.939 291.002z" />
<glyph unicode="&#xe960;" glyph-name="video-stop" data-tags="video-stop" d="M768.71 704.71v-513.421h-513.421v513.421h513.421zM832.71 768.71h-641.421v-641.421h641.421v641.421z" />
<glyph unicode="&#xe961;" glyph-name="wifi" data-tags="wifi" d="M512.301 237.485c-0.002 0-0.004 0-0.006 0-34.551 0-62.56-28.009-62.56-62.56s28.009-62.56 62.56-62.56c34.551 0 62.56 28.009 62.56 62.56v0c0 0.002 0 0.004 0 0.006 0 34.547-28.006 62.554-62.554 62.554v0zM213.498 479.814l20.128-25.126 25.466-19.75c63.697 63.685 151.687 103.074 248.877 103.074s185.18-39.389 248.877-103.074l-0.001 0.001 25.466 19.75 20.128 25.126c-75.304 75.487-179.433 122.19-294.47 122.19s-219.167-46.702-294.462-122.182l-0.008-0.008zM507.968 425.453c-66.981-0.723-127.466-27.946-171.584-71.66l0.019 0.019-3.744-3.622 47.437-43.066c32.821 32.517 78.002 52.609 127.875 52.609s95.054-20.092 127.889-52.623l-0.014 0.014 47.437 43.066-3.75 3.622c-44.097 43.697-104.583 70.921-171.427 71.64l-0.138 0.001zM508 782.874h-0.064c-0.547 0.002-1.196 0.003-1.844 0.003-157.895 0-300.813-64.119-404.139-167.739l-0.014-0.014-2.97-2.995 47.59-42.88c91.963 92.428 219.257 149.628 359.911 149.628 0.515 0 1.030-0.001 1.545-0.002h-0.016c0.437 0.001 0.954 0.002 1.471 0.002 140.652 0 267.944-57.2 359.884-149.607l0.021-0.021 47.59 42.88-2.97 2.995c-103.339 103.634-246.258 167.753-404.152 167.753-0.648 0-1.296-0.001-1.944-0.003h0.1z" />
<glyph unicode="&#xe962;" glyph-name="signal" data-tags="signal" d="M383.002 583.565l-45.626 44.877c-44.585-45.058-72.129-107.053-72.129-175.482 0-0.205 0-0.409 0.001-0.614v0.032c-0.004-0.491-0.006-1.072-0.006-1.653 0-67.515 27.163-128.686 71.158-173.18l-0.023 0.023 4.557-4.755 43.066 47.379c-33.829 33.831-54.752 80.567-54.752 132.189 0 51.124 20.521 97.456 53.776 131.206l-0.022-0.023zM168.627 447.942c-0.001 0.255-0.001 0.557-0.001 0.859 0 96.94 39.387 184.68 103.031 248.091l0.010 0.010c5.030 4.998 10.157 9.875 15.405 14.502l-42.31 48q-9.37-8.256-18.374-17.28c-75.243-75.275-121.78-179.249-121.78-294.093 0-115.092 46.738-219.267 122.269-294.582l0.010-0.010 4.416 4.045 40.365 41.645c-63.651 63.341-103.041 151.011-103.041 247.881 0 0.328 0 0.656 0.001 0.983v-0.051zM250.496 175.040l-19.2-17.536-4.16-4.288 23.36 21.824zM686.624 628.442l-45.626-44.877c33.232-33.728 53.754-80.059 53.754-131.183 0-51.623-20.923-98.358-54.752-132.189v0l43.066-47.36 4.557 4.755c43.972 44.471 71.135 105.642 71.135 173.157 0 0.581-0.002 1.162-0.006 1.742v-0.089c0 0.167 0.001 0.365 0.001 0.563 0 68.429-27.544 130.424-72.15 175.504l0.022-0.022zM779.219 759.379l-42.31-48c5.248-4.627 10.374-9.504 15.405-14.502 63.683-63.697 103.070-151.685 103.070-248.874s-39.388-185.177-103.071-248.874v0l40.365-41.645 4.416-4.045c75.541 75.325 122.279 179.5 122.279 294.592 0 114.844-46.537 218.818-121.782 294.095l0.002-0.002q-8.992 9.005-18.374 17.254zM796.864 153.216l-4.16 4.288-19.2 17.536 23.36-21.824zM512 510.56c-0.002 0-0.004 0-0.006 0-34.551 0-62.56-28.009-62.56-62.56s28.009-62.56 62.56-62.56c34.551 0 62.56 28.009 62.56 62.56v0c0 34.549-28.005 62.556-62.553 62.56v0z" />
<glyph unicode="&#xe963;" glyph-name="rss" data-tags="rss" d="M127.091 453.562c28.552 10.174 61.492 16.26 95.79 16.715l0.21 0.002c171.752-0.193 310.933-139.372 311.13-311.105v-0.019c-0.458-34.532-6.549-67.493-17.39-98.212l0.661 2.148h67.84c8.207 29.222 12.925 62.78 12.925 97.44 0 206.422-167.338 373.76-373.76 373.76-34.647 0-68.193-4.714-100.031-13.536l2.626 0.621zM319.098 159.142c0-53.019-42.981-96-96-96s-96 42.981-96 96c0 53.019 42.981 96 96 96s96-42.981 96-96zM127.091 760.595c28.712 5.053 61.911 8.070 95.767 8.319l0.233 0.001c336.613-0.389 609.391-273.144 609.818-609.712v-0.042c-0.247-34.11-3.263-67.331-8.835-99.678l0.515 3.614h64.672c4.617 28.678 7.399 61.928 7.678 95.775l0.002 0.289c-0.462 371.95-301.891 673.343-673.811 673.747h-0.039c-34.113-0.281-67.341-3.063-99.795-8.172l3.795 0.492z" />
<glyph unicode="&#xe964;" glyph-name="alarm-level1" data-tags="alarm-level1" d="M704 448c0-106.039-85.961-192-192-192s-192 85.961-192 192c0 106.039 85.961 192 192 192s192-85.961 192-192z" />
<glyph unicode="&#xe965;" glyph-name="alarm-level2" data-tags="alarm-level2" d="M768.525 448c0-141.385-114.615-256-256-256s-256 114.615-256 256c0 141.385 114.615 256 256 256s256-114.615 256-256z" />
<glyph unicode="&#xe966;" glyph-name="alarm-level3" data-tags="alarm-level3" d="M832 448c0-176.731-143.269-320-320-320s-320 143.269-320 320c0 176.731 143.269 320 320 320s320-143.269 320-320z" />
<glyph unicode="&#xe967;" glyph-name="alarm-level4" data-tags="alarm-level4" d="M899.277 448c0-212.077-171.923-384-384-384s-384 171.923-384 384c0 212.077 171.923 384 384 384s384-171.923 384-384z" />
<glyph unicode="&#xe968;" glyph-name="alarm-level5" data-tags="alarm-level5" d="M960.154 448c0-247.508-200.645-448.154-448.154-448.154s-448.154 200.645-448.154 448.154c0 247.508 200.645 448.154 448.154 448.154s448.154-200.645 448.154-448.154z" />
<glyph unicode="&#xe969;" glyph-name="alarm-level6" data-tags="alarm-level6" d="M1024 448c0-282.77-229.23-512-512-512s-512 229.23-512 512c0 282.77 229.23 512 512 512s512-229.23 512-512z" />
<glyph unicode="&#xe96a;" glyph-name="bluethooth" data-tags="bluethooth" d="M447.622 895.93v-369.21l-205.997 140.090-36-52.877 241.997-164.57v-0.928l-252.218-165.318 35.066-53.498 217.152 142.33v-372.768l330.47 255.501-217.28 193.126 229.312 194.246zM677.907 258.054l-166.285-128.499v276.314zM511.622 489.997v278.81l175.565-130.125z" />
<glyph unicode="&#xe96b;" glyph-name="camera-cctv" data-tags="camera-cctv" d="M214.861 868.269l-159.52-476.909 126.72-42.24-47.597-92.589h-134.464v-207.942h260.986l120.576 234.067 276.288-92.064 20.589 61.779 170.669-56.877 74.976 225.005-151.834 50.624 224.288 136.653zM221.984 112.608h-157.984v79.942h109.485l69.99 136.122 76.634-25.53zM843.29 380.128l-34.56-103.808-110.080 36.685 34.56 103.814zM692.678 497.632l-75.309-226.086-481.050 160.314 119.040 355.469 590.080-196.653zM301.487 608.36l20.243 60.755 153.623-51.187-20.243-60.755-153.623 51.187z" />
<glyph unicode="&#xe96c;" glyph-name="camera-classic" data-tags="camera-classic" d="M150.432 596.672h153.626v-64h-153.626v64zM768.294 750.816h-772v-570.381h772v133.875l257.626-126.31v555.251l-257.626-126.291zM704.294 585.562v-341.12h-644v442.374h644zM961.92 640.64v-350.016l-193.626 94.938v160.128z" />
<glyph unicode="&#xe96d;" glyph-name="cloud" data-tags="cloud" d="M843.386 573.44c-10.94 142.716-127.63 254.861-271.295 258.553l-0.359 0.007c-124.066-2.344-227.9-86.291-260.22-200.297l-0.471-1.943c-20.255 6.496-43.556 10.24-67.731 10.24-0.038 0-0.076 0-0.115 0h0.006c-135.16-3.825-243.271-114.306-243.271-250.037 0-2.097 0.026-4.187 0.077-6.272l-0.006 0.309c-0.045-1.775-0.071-3.866-0.071-5.963 0-135.731 108.111-246.212 242.919-250.029l0.352-0.008h567.469c118.524 3.194 213.389 100.036 213.389 219.036 0 1.766-0.021 3.527-0.062 5.283l0.005-0.261c0.022 1.156 0.034 2.52 0.034 3.886 0 107.837-77.147 197.656-179.261 217.275l-1.387 0.222zM810.669 192.070h-567.469c-99.795 3.672-179.303 85.458-179.303 185.815 0 2.175 0.037 4.342 0.111 6.499l-0.009-0.314c-0.066 1.846-0.103 4.014-0.103 6.192 0 100.355 79.508 182.14 178.969 185.799l0.334 0.010c47.521-0.377 90.39-19.984 121.268-51.412l0.025-0.025c-0.525 6.496-1.824 12.749-1.824 19.398-0.076 2.143-0.119 4.662-0.119 7.191 0 117.079 92.757 212.494 208.792 216.766l0.39 0.011c116.429-4.283 209.189-99.701 209.189-216.784 0-2.538-0.044-5.065-0.13-7.582l0.010 0.366c-0.233-12.985-1.464-25.506-3.622-37.708l0.211 1.439c9.961 2.644 21.416 4.21 33.22 4.307h0.060c83.161-3.058 149.417-71.211 149.417-154.839 0-1.808-0.031-3.609-0.092-5.402l0.007 0.26c0.055-1.537 0.086-3.342 0.086-5.155 0-83.63-66.255-151.784-149.139-154.837l-0.278-0.008z" />
<glyph unicode="&#xe96e;" glyph-name="core" data-tags="core" d="M512 704c-92.567-0.188-173.535-49.672-218.066-123.588l-0.641-1.148h-294.573v-64h267.392c-6.080-20.066-9.75-43.166-10.11-67.068l-0.002-0.196c0.276-22.308 3.384-43.772 8.979-64.208l-0.416 1.782h-265.843v-64h291.949c44.346-77.895 126.812-129.572 221.347-129.572s177.002 51.676 220.691 128.322l0.656 1.249h290.17v64h-264.077c5.174 18.655 8.275 40.12 8.542 62.267l0.002 0.158c-0.344 24.090-3.996 47.193-10.52 69.057l0.459-1.793h265.6v64h-292.8c-45.178 75.073-126.16 124.56-218.714 124.736h-0.026zM512 256c-106.039 0-192 85.961-192 192s85.961 192 192 192c106.039 0 192-85.961 192-192v0c-0.127-105.987-86.012-191.872-191.988-192h-0.012z" />
<glyph unicode="&#xe96f;" glyph-name="network-element" data-tags="network-element" d="M936.685 911.635l-158.675-158.675-141.075 141.050-566.093-565.997 141.094-141.133-171.251-171.245 45.254-45.248 171.238 171.27 146.56-146.56 566.093 566.067-146.56 146.56 158.682 158.682zM403.75 85.574l-242.406 242.438 475.59 475.52 242.426-242.394z" />
<glyph unicode="&#xe971;" glyph-name="pin" data-tags="pin" d="M692.672 853.894l-262.003-262.003c-16.767 3.452-36.036 5.429-55.768 5.429-79.654 0-151.785-32.208-204.081-84.311l-22.615-22.615 179.923-179.942-223.11-223.091 45.248-45.248 223.11 223.123 182.106-182.093 22.63 22.624c52.092 52.265 84.3 124.376 84.3 204.009 0 19.722-1.975 38.983-5.739 57.595l0.313-1.853 261.997 262.061zM590.861 367.328c4.779-17.31 7.526-37.186 7.526-57.704 0-50.626-16.721-97.347-44.941-134.941l0.418 0.581-313.568 313.504c36.938 27.866 83.614 44.631 134.206 44.631 20.622 0 40.594-2.786 59.56-8.001l-1.573 0.369 17.811-4.749 242.374 242.374 135.814-135.814-242.374-242.438z" />
<glyph unicode="&#xe972;" glyph-name="server" data-tags="server" d="M128.032-64h767.968v1024h-767.968zM192.032 896h639.968v-256h-639.968zM192.032 576h639.968v-256h-639.968zM192.032 256h639.968v-256h-639.968zM640.032 512h128v-64h-128v64zM640.032 832h128v-64h-128v64zM640.032 192h128v-64h-128v64z" />
<glyph unicode="&#xe973;" glyph-name="severity-cleared" data-tags="severity-cleared" d="M1024 447.994c0-282.77-229.23-512-512-512s-512 229.23-512 512c0 282.77 229.23 512 512 512s512-229.23 512-512z" />
<glyph unicode="&#xe974;" glyph-name="severity-critical" data-tags="severity-critical" d="M64-1.792h899.584l-449.856 449.792 449.856 449.792h-899.584v-899.584z" />
<glyph unicode="&#xe975;" glyph-name="severity-indeterminate" data-tags="severity-indeterminate" d="M64.525 895.994h896v-896h-896v896z" />
<glyph unicode="&#xe976;" glyph-name="severity-major" data-tags="severity-major" d="M64 0h896v896l-448-448.064-448 448.064v-896z" />
<glyph unicode="&#xe977;" glyph-name="severity-minor" data-tags="severity-minor" d="M515.264 447.936l-223.488 447.168-223.616-447.104v-447.104h894.208v447.104l-223.552 447.104-223.552-447.168z" />
<glyph unicode="&#xe978;" glyph-name="severity-warning" data-tags="severity-warning" d="M64.896 448l149.056-447.104 298.048 447.168 298.048-447.168 149.056 446.464v447.744h-894.208v-447.104z" />
<glyph unicode="&#xe979;" glyph-name="traffic-lights" data-tags="traffic-lights" d="M512 953.126c-146.21-0.446-264.616-118.852-265.062-265.020v-480.171c0-146.39 118.672-265.062 265.062-265.062s265.062 118.672 265.062 265.062v0 480.128c-0.446 146.21-118.852 264.616-265.020 265.062h-0.043zM713.19 207.936c0-111.114-90.076-201.19-201.19-201.19s-201.19 90.076-201.19 201.19v0 480.128c0 111.114 90.076 201.19 201.19 201.19s201.19-90.076 201.19-201.19v0zM393.722 448.64c0.004-65.275 52.92-118.189 118.195-118.189 65.277 0 118.195 52.918 118.195 118.195 0 65.275-52.914 118.192-118.188 118.195v0c-65.279-0.004-118.198-52.922-118.202-118.201v0zM511.923 502.95c29.996-0.004 54.31-24.321 54.31-54.317 0-29.998-24.318-54.317-54.317-54.317s-54.317 24.318-54.317 54.317c0 0.002 0 0.005 0 0.007v0c0.040 29.987 24.337 54.286 54.319 54.33h0.004zM630.112 685.030c0 0.002 0 0.004 0 0.006 0 65.277-52.918 118.195-118.195 118.195s-118.195-52.918-118.195-118.195c0-65.277 52.918-118.195 118.195-118.195 0.002 0 0.004 0 0.007 0v0c65.268 0.015 118.174 52.921 118.189 118.187v0.001zM511.923 630.72c-0.006 0-0.012 0-0.019 0-30.005 0-54.33 24.324-54.33 54.33s24.324 54.33 54.33 54.33c30.005 0 54.33-24.324 54.33-54.33 0-0.007 0-0.014 0-0.020v0.001c-0.051-29.974-24.336-54.259-54.306-54.31h-0.005zM398.451 216.998c0.004-62.663 50.803-113.459 113.466-113.459 62.665 0 113.466 50.8 113.466 113.466 0 62.663-50.797 113.462-113.459 113.466v0c-0.008 0-0.017 0-0.026 0-62.655 0-113.446-50.792-113.446-113.446 0-0.009 0-0.018 0-0.027v0.002zM511.923 266.592c27.377-0.007 49.568-22.203 49.568-49.581 0-27.383-22.198-49.581-49.581-49.581-27.378 0-49.573 22.191-49.581 49.567v0.001c0.025 27.38 22.214 49.568 49.591 49.594h0.002z" />
<glyph unicode="&#xe97a;" glyph-name="volume-mute" data-tags="volume-mute" d="M64 640.096v-384h192l256-192.058v768l-256-191.942zM294.4 588.896l153.6 115.2v-512l-170.669 128h-149.331v256h149.331zM966.4 329.92l-117.76 118.208 117.376 117.376-45.248 45.248-117.312-117.312-117.504 117.952-45.312-45.12 117.568-118.016-118.144-118.208 45.248-45.248 118.080 118.080 117.696-118.144 45.312 45.184z" />
<glyph unicode="&#xe97b;" glyph-name="volume-high" data-tags="volume-high" d="M747.594 791.199l-28.625-57.25c105.779-53.529 177.031-161.408 177.031-285.93 0-124.534-71.266-232.422-175.24-285.108l-1.822-0.838 28.687-57.25c126.905 64.287 212.375 193.752 212.375 343.18 0 149.44-85.485 278.914-210.222 342.19l-2.185 1.005zM668.75 633.449l-28.687-57.25c47.725-23.769 79.937-72.217 79.937-128.188s-32.213-104.418-79.11-127.814l-0.827-0.374 28.687-57.25c68.834 34.541 115.25 104.568 115.25 185.437s-46.416 150.897-114.060 184.896l-1.19 0.542zM64 640.093v-384.023h192.004l256-192.055v768.020l-256-191.942zM294.41 307.285l-17.066 12.808h-149.344v255.977h149.332l170.672 127.968v-511.976z" />
<glyph unicode="&#xe97c;" glyph-name="volume-low" data-tags="volume-low" d="M64 640v-384h192l256-192.064v768l-256-191.936zM294.4 588.8l153.6 115.2v-512l-170.656 128h-149.344v256h149.331z" />
<glyph unicode="&#xe97d;" glyph-name="battery-charging" data-tags="battery-charging" d="M1024 604.096h-128v132.749h-896v-577.69h896v132.749h128zM832 223.155h-768v449.69h768v-449.69zM960 355.904h-64v184.192h64zM384 345.472l-149.696 138.048 43.392 46.976 106.304-97.984 128 117.952 149.696-137.984-43.392-46.976-106.304 97.984-128-118.016z" />
<glyph unicode="&#xe97e;" glyph-name="battery-empty" data-tags="battery-empty" d="M1024 604.096h-128v132.749h-896v-577.69h896v132.749h128zM832 223.155h-768v449.69h768v-449.69zM960 355.904h-64v184.192h64z" />
<glyph unicode="&#xe97f;" glyph-name="battery-full" data-tags="battery-full" d="M1024 604.096h-128v132.749h-896v-577.69h896v132.749h128zM832 223.155h-768v449.69h768v-449.69zM960 355.904h-64v184.192h64zM120.122 608h655.757v-320h-655.757v320z" />
<glyph unicode="&#xe980;" glyph-name="dial" data-tags="dial" d="M873.664 176.858c-11.577 11.553-27.558 18.698-45.207 18.698-35.346 0-64-28.654-64-64s28.654-64 64-64c17.697 0 33.717 7.183 45.302 18.793l0.001 0.001c11.553 11.577 18.697 27.557 18.697 45.206 0 17.697-7.183 33.716-18.792 45.301l-0.001 0.001zM375.418 583.629c-34.654-34.73-56.083-82.668-56.083-135.612 0-106.039 85.961-192 192-192s192 85.961 192 192c0 53.087-21.545 101.141-56.368 135.897l-0.003 0.003c-34.732 34.664-82.677 56.1-135.629 56.1-53.095 0-101.156-21.552-135.913-56.385l-0.003-0.003zM642.182 818.733c28.146 7.132 48.639 32.237 48.639 62.129 0 35.346-28.654 64-64 64s-64-28.654-64-64c0-5.453 0.682-10.747 1.965-15.801l-0.095 0.443c7.13-28.147 32.237-48.642 62.13-48.642 5.454 0 10.749 0.682 15.804 1.966l-0.443-0.095zM858.694 709.082c19.874 11.119 33.088 32.036 33.088 56.040 0 35.346-28.654 64-64 64s-64-28.654-64-64c0-11.343 2.951-21.998 8.127-31.237l-0.166 0.323c11.119-19.873 32.036-33.086 56.039-33.086 11.343 0 21.996 2.951 31.235 8.126l-0.323-0.166zM411.552 818.81c27.506 7.577 47.374 32.37 47.374 61.803 0 35.346-28.654 64-64 64s-64-28.654-64-64c0-5.909 0.801-11.63 2.299-17.062l-0.106 0.45c7.573-27.513 32.369-47.388 61.806-47.388 5.913 0 11.639 0.802 17.075 2.303l-0.45-0.106zM140.525 348.218c-7.578 27.506-32.37 47.374-61.803 47.374-35.346 0-64-28.654-64-64s28.654-64 64-64c5.918 0 11.648 0.803 17.088 2.307l-0.45-0.106c27.5 7.582 47.362 32.371 47.362 61.8 0 5.913-0.802 11.64-2.303 17.076l0.106-0.45zM110.534 508.102c19.231 11.28 31.94 31.851 31.94 55.391 0 35.346-28.654 64-64 64s-64-28.654-64-64c0-11.808 3.198-22.868 8.774-32.364l-0.163 0.301c11.28-19.23 31.851-31.937 55.389-31.937 11.807 0 22.866 3.197 32.361 8.773l-0.301-0.163zM149.587 176.083c-11.551-11.577-18.694-27.556-18.694-45.204 0-35.346 28.654-64 64-64s64 28.654 64 64c0 17.699-7.184 33.72-18.796 45.305l-0.001 0.001c-11.577 11.551-27.556 18.694-45.203 18.694-17.698 0-33.719-7.184-45.304-18.795l-0.001-0.001zM239.514 719.245c11.553 11.577 18.698 27.558 18.698 45.207 0 35.346-28.654 64-64 64s-64-28.654-64-64c0-17.7 7.186-33.722 18.799-45.308l0.001-0.001c11.576-11.549 27.554-18.69 45.2-18.69 17.697 0 33.716 7.183 45.301 18.792l0.001 0.001zM412.346 76.979c-4.949 1.374-10.632 2.163-16.499 2.163-35.346 0-64-28.654-64-64s28.654-64 64-64c29.479 0 54.303 19.931 61.732 47.052l0.105 0.449c1.374 4.949 2.163 10.632 2.163 16.499 0 29.479-19.931 54.303-47.052 61.732l-0.449 0.105zM611.117 77.19c-27.504-7.579-47.37-32.37-47.37-61.802 0-35.346 28.654-64 64-64s64 28.654 64 64c0 5.915-0.802 11.643-2.304 17.080l0.106-0.45c-7.579 27.504-32.37 47.37-61.802 47.37-5.915 0-11.643-0.802-17.080-2.304l0.45 0.106z" />
<glyph unicode="&#xe981;" glyph-name="blog" data-tags="blog" d="M128 896v-192h-64v-64h64v-166.4h-64v-64h64v-160h-64v-64h64v-185.6h832v896h-832zM896 64h-704v121.6h64v64h-64v160h64v64h-64v166.4h64v64h-64v128h704v-768zM716.8 371.2c0 38.4-12.8 70.4-44.8 89.6 19.2 12.8 32 44.8 32 70.4 0 64-44.8 108.8-115.2 108.8h-147.2v-384h153.6c70.4 0 121.6 44.8 121.6 115.2zM505.6 576h83.2c32 0 51.2-19.2 51.2-44.8s-19.2-44.8-51.2-44.8h-83.2v89.6zM505.6 320v102.4h83.2c32 0 51.2-19.2 51.2-51.2s-12.8-51.2-44.8-51.2h-89.6z" />
<glyph unicode="&#xe982;" glyph-name="share" data-tags="share" d="M742.003 548.909c85.647 0.015 155.072 69.449 155.072 155.098 0 85.658-69.44 155.098-155.098 155.098s-155.098-69.44-155.098-155.098c0-0.002 0-0.005 0-0.007v0c0.24-16.212 2.961-31.706 7.8-46.233l-0.312 1.081-226.944-125.658c-28.628 33.687-71.030 54.919-118.392 54.919-85.644 0-155.072-69.428-155.072-155.072s69.428-155.072 155.072-155.072c49.273 0 93.178 22.98 121.583 58.807l0.246 0.322 221.139-107.59c-3.094-11.206-4.951-24.101-5.119-37.404l-0.001-0.1c-0.006-0.52-0.010-1.135-0.010-1.75 0-86.648 70.242-156.89 156.89-156.89s156.89 70.242 156.89 156.89c0 86.648-70.242 156.89-156.89 156.89-50.046 0-94.618-23.432-123.345-59.924l-0.255-0.336-220.595 107.405c3.489 11.608 5.498 24.947 5.498 38.756 0 15.691-2.593 30.776-7.374 44.85l0.29-0.982 227.379 125.939c28.341-32.979 70.049-53.782 116.619-53.939h0.028zM742.003 795.098c50.301-0.015 91.072-40.795 91.072-91.098 0-50.312-40.786-91.098-91.098-91.098s-91.098 40.786-91.098 91.098v0c0.066 50.294 40.827 91.047 91.118 91.098h0.005zM249.939 341.978c-50.301 0.015-91.072 40.795-91.072 91.098 0 50.312 40.786 91.098 91.098 91.098s91.098-40.786 91.098-91.098c0-0.013 0-0.027 0-0.040v0.002c-0.076-50.284-40.835-91.022-91.119-91.066h-0.004zM742.003 283.168c0.002 0 0.004 0 0.006 0 50.329 0 91.13-40.8 91.13-91.13s-40.8-91.13-91.13-91.13c-50.316 0-91.108 40.778-91.13 91.089v0.002c0.036 50.319 40.807 91.103 91.118 91.162h0.006z" />
<glyph unicode="&#xe983;" glyph-name="fika" data-tags="fika" d="M813.062 418.874h-108.314v92.064h-639.654v-346.458c0.113-91.368 74.159-165.403 165.521-165.498h308.79c65.009 0.217 121.149 37.969 147.902 92.707l0.431 0.976h125.325c81.707 5.082 146.049 72.591 146.049 155.129 0 2.814-0.075 5.611-0.223 8.388l0.016-0.388c0.132 2.392 0.207 5.192 0.207 8.010 0 82.525-64.349 150.020-145.608 155.047l-0.442 0.022zM640.749 164.314c-0.069-55.937-45.405-101.261-101.339-101.312h-308.786c-56.026 0.073-101.428 45.457-101.53 101.469v282.468h511.654zM813.062 156.685h-109.062c0.122 2.56 0.774 5.018 0.774 7.629v190.56h108.314c46.387-5.036 82.172-43.986 82.172-91.295 0-2.733-0.119-5.438-0.353-8.111l0.024 0.346c0.212-2.339 0.333-5.060 0.333-7.808 0-47.324-35.799-86.287-81.794-91.285l-0.408-0.036zM357.843 709.875c36.893 42.718 59.366 98.786 59.366 160.104 0 9.519-0.542 18.912-1.596 28.149l0.105-1.13h-64c1.098-7.587 1.726-16.348 1.726-25.255 0-46.509-17.101-89.023-45.358-121.599l0.195 0.23c-35.037-39.968-56.411-92.676-56.411-150.375 0-8.101 0.421-16.103 1.243-23.986l-0.083 0.985h64c-0.852 6.373-1.338 13.74-1.338 21.221 0 42.887 15.979 82.042 42.308 111.836l-0.157-0.181zM549.843 709.875c36.893 42.718 59.366 98.786 59.366 160.104 0 9.519-0.542 18.912-1.596 28.149l0.105-1.13h-64c1.098-7.587 1.726-16.348 1.726-25.255 0-46.509-17.101-89.023-45.358-121.599l0.195 0.23c-35.037-39.968-56.411-92.676-56.411-150.375 0-8.101 0.421-16.103 1.243-23.986l-0.083 0.985h64c-0.852 6.373-1.338 13.74-1.338 21.221 0 42.887 15.979 82.042 42.308 111.836l-0.157-0.181z" />
</font>
</defs>
</svg>
